<?xml version="1.0" standalone="no"?><!DOCTYPE svg PUBLIC "-//W3C//DTD SVG 1.1//EN" "http://www.w3.org/Graphics/SVG/1.1/DTD/svg11.dtd"><svg t="1617784568368" class="icon" viewBox="0 0 1024 1024" version="1.1" xmlns="http://www.w3.org/2000/svg" p-id="2358" xmlns:xlink="http://www.w3.org/1999/xlink" width="128" height="128"><defs><style type="text/css"></style></defs><path d="M993.3824 562.688c-19.456 262.2464-239.8208 464.0768-502.784 460.288C222.9248 1015.808 7.4752 800.6656 0.1024 532.992-3.6864 269.824 197.9392 49.2544 460.288 29.5936a36.12672 36.12672 0 0 1 37.376 34.7136v426.9056c0 18.944 15.1552 34.4064 34.2016 34.7136h426.0864c19.5584 0 35.4304 15.7696 35.4304 35.328v1.4336z m30.3104-161.0752C994.2016 192.3072 828.416 28.672 618.7008 1.9456a54.65088 54.65088 0 0 0-63.488 44.1344c-0.6144 3.072-0.8192 6.144-0.8192 9.216v370.688a36.72064 36.72064 0 0 0 36.7616 36.0448h374.0672c30.5152 1.8432 56.7296-21.2992 58.7776-51.8144-0.1024-2.6624-0.1024-5.632-0.3072-8.6016z m0 0" p-id="2359"></path></svg>
