<?xml version="1.0" standalone="no"?><!DOCTYPE svg PUBLIC "-//W3C//DTD SVG 1.1//EN" "http://www.w3.org/Graphics/SVG/1.1/DTD/svg11.dtd"><svg t="1617784574216" class="icon" viewBox="0 0 1024 1024" version="1.1" xmlns="http://www.w3.org/2000/svg" p-id="2614" xmlns:xlink="http://www.w3.org/1999/xlink" width="128" height="128"><defs><style type="text/css"></style></defs><path d="M759.296 266.5472h-10.1376C702.2592 115.8144 562.7904 13.2096 404.992 13.4144c-161.9968 0-293.5808 106.2912-344.1664 253.1328h-10.24c-27.9552 0-50.5856 22.6304-50.5856 50.5856v116.4288c0 27.8528 22.8352 50.688 50.688 50.688 30.0032 0 53.248-26.5216 49.152-56.2176l-0.3072-2.56c-2.9696-22.4256-3.072-45.1584-0.512-67.584 2.56-23.2448 3.4816-45.1584 7.3728-60.8256C141.7216 165.2736 263.168 64 404.8896 64c143.0528-0.7168 267.3664 98.304 298.5984 237.9776 5.12 20.2752 5.12 45.4656 5.12 70.8608 0 15.872-1.2288 31.4368-2.9696 45.4656a54.016 54.016 0 0 0 53.6576 60.8256c30.3104 0 50.5856-20.2752 50.5856-50.688V312.0128c0-25.2928-20.2752-45.4656-50.688-45.4656h0.1024zM570.1632 924.4672H176.0256C74.4448 924.4672 7.3728 817.2544 53.3504 726.6304c0.8192-1.536 1.6384-3.072 2.3552-4.608 34.816-61.8496 84.2752-94.208 105.7792-105.984a14.2336 14.2336 0 0 1 17.5104 3.072c8.6016 9.9328 25.2928 27.0336 50.176 44.3392 38.6048 26.7264 96.9728 53.5552 175.8208 53.5552 25.088 0 48.3328-3.072 69.7344-8.192 10.0352-2.4576 19.1488 6.2464 17.3056 16.384v0.2048c-2.4576 10.752-6.0416 37.0688-6.0416 57.1392 0 19.968 3.1744 43.1104 6.144 57.9584 7.168 38.0928 36.1472 69.7344 78.4384 69.7344h2.4576c0.8192 0 1.536 0.512 1.8432 1.2288l-0.4096 0.9216c-1.7408 3.8912-3.1744 7.8848-4.3008 12.0832z m30.4128-374.784c-9.9328 7.3728-17.8176 16.896-23.4496 27.648-44.544 45.7728-105.2672 73.8304-172.2368 73.8304-137.0112 0-248.0128-117.76-248.0128-263.168s111.104-263.168 248.0128-263.168c137.0112 0 248.0128 117.76 248.0128 263.168 0 60.928-19.5584 117.0432-52.3264 161.6896z m417.8944 185.0368c0.2048 1.1264 5.0176 27.0336 5.0176 47.4112 0 20.3776-4.8128 46.2848-5.0176 47.3088-2.56 13.6192-10.6496 22.4256-20.5824 22.4256h-2.4576c-34.6112 0-62.8736 28.2624-62.8736 62.8736 0 11.4688 5.4272 23.9616 5.4272 24.064 5.4272 12.0832 1.2288 26.8288-9.6256 34.4064l-0.512 0.4096-61.5424 33.9968-0.6144 0.2048c-11.8784 4.8128-25.4976 1.9456-34.304-7.3728-7.4752-8.2944-31.3344-29.696-50.8928-29.696-19.3536 0-43.52 21.6064-50.4832 29.184-8.9088 9.216-22.528 11.9808-34.4064 7.168l-0.6144-0.3072-59.2896-33.1776-0.6144-0.3072a28.44672 28.44672 0 0 1-9.5232-34.4064c0.1024-0.1024 5.4272-12.5952 5.4272-24.064 0-34.6112-28.16-62.8736-62.8736-62.8736h-2.4576c-9.9328 0-18.0224-8.8064-20.5824-22.4256-2.9696-15.6672-4.7104-31.4368-5.12-47.3088 0-20.48 4.8128-46.2848 5.12-47.4112 2.56-13.5168 10.6496-22.4256 20.48-22.4256h2.56c34.6112 0 62.8736-28.2624 62.8736-62.8736 0-11.4688-5.4272-23.9616-5.4272-24.1664-5.2224-12.288-1.2288-26.624 9.6256-34.304l0.512-0.4096 62.6688-34.4064 0.6144-0.3072c11.776-4.7104 25.2928-1.9456 34.2016 7.0656 7.3728 7.7824 30.8224 28.0576 49.7664 28.0576 18.7392 0 42.0864-19.7632 49.3568-27.4432a31.744 31.744 0 0 1 34.304-6.7584l0.6144 0.3072 60.5184 33.5872 0.512 0.4096c10.8544 7.5776 14.9504 22.3232 9.6256 34.4064-3.1744 7.68-5.0176 15.7696-5.4272 24.064 0 34.6112 28.16 62.8736 62.7712 62.8736h2.56c9.9328 0 18.0224 8.8064 20.48 22.4256h0.2048zM780.6976 683.008c-54.5792 0.1024-98.816 44.2368-98.816 98.816 0 54.4768 44.3392 98.9184 98.816 98.9184 54.5792-0.1024 98.816-44.2368 98.9184-98.816 0-54.5792-44.4416-98.9184-98.9184-98.9184z m0 0" p-id="2615"></path></svg>
