<?xml version="1.0" standalone="no"?><!DOCTYPE svg PUBLIC "-//W3C//DTD SVG 1.1//EN" "http://www.w3.org/Graphics/SVG/1.1/DTD/svg11.dtd"><svg t="1617784380037" class="icon" viewBox="0 0 1024 1024" version="1.1" xmlns="http://www.w3.org/2000/svg" p-id="1325" xmlns:xlink="http://www.w3.org/1999/xlink" width="128" height="128"><defs><style type="text/css"></style></defs><path d="M914.8416 617.8816c-7.168-7.168-16.896-11.264-27.0336-11.264-10.1376 0-19.8656 4.096-27.0336 11.264L620.7488 858.0096c-7.168 7.168-11.1616 16.896-11.1616 27.0336V983.04a38.2976 38.2976 0 0 0 38.2976 38.2976h97.9968c10.1376 0 19.8656-3.9936 27.0336-11.1616L1013.0432 770.048a38.25664 38.25664 0 0 0 0-53.9648l-98.2016-98.2016zM887.808 2.7648H101.9904C45.6704 2.7648 0.1024 48.4352 0.1024 104.6528v814.6944a101.76512 101.76512 0 0 0 101.7856 101.7856h422.0928c4.9152 0 8.9088-3.9936 8.9088-8.9088v-109.568c0-14.5408 5.7344-28.4672 16.0768-38.7072l315.392-344.2688c16.896-18.432 33.4848-31.0272 57.9584-36.1472 8.2944-1.7408 16.7936-2.048 25.088-1.1264 6.2464 0.7168 12.5952-0.512 17.92-3.7888a50.96448 50.96448 0 0 0 24.4736-43.2128V104.5504A101.95968 101.95968 0 0 0 887.808 2.7648zM412.4672 477.5936h-202.752c-20.8896 0-38.5024-16.384-39.0144-37.1712a38.23616 38.23616 0 0 1 38.1952-39.2192h202.752c20.8896 0 38.5024 16.384 39.0144 37.1712a38.10304 38.10304 0 0 1-38.1952 39.2192zM289.3824 637.8496h-79.7696c-20.8896 0-38.5024-16.384-39.0144-37.1712a38.23616 38.23616 0 0 1 38.1952-39.2192h79.7696c20.8896 0 38.5024 16.384 39.0144 37.1712a38.10304 38.10304 0 0 1-38.1952 39.2192zM565.248 318.1568H208.7936c-21.4016 0-38.7072-17.6128-38.1952-39.2192 0.512-20.8896 18.2272-37.1712 39.0144-37.1712h354.7136c20.8896 0 38.5024 16.384 39.0144 37.1712a37.95968 37.95968 0 0 1-38.0928 39.2192z m0 0" p-id="1326"></path></svg>
