<?xml version="1.0" standalone="no"?><!DOCTYPE svg PUBLIC "-//W3C//DTD SVG 1.1//EN" "http://www.w3.org/Graphics/SVG/1.1/DTD/svg11.dtd"><svg t="1617784554671" class="icon" viewBox="0 0 1024 1024" version="1.1" xmlns="http://www.w3.org/2000/svg" p-id="1710" xmlns:xlink="http://www.w3.org/1999/xlink" width="128" height="128"><defs><style type="text/css"></style></defs><path d="M1022.3616 522.0352c-6.9632 40.7552-29.696 67.9936-68.096 83.8656-14.336 5.9392-27.648 15.4624-39.936 25.2928-23.2448 18.5344-37.6832 42.496-33.1776 73.4208 3.072 21.0944 7.0656 42.3936 13.824 62.5664 13.4144 40.3456 6.8608 76.9024-22.528 106.0864-28.9792 28.8768-65.4336 35.6352-105.0624 21.7088-15.6672-5.5296-31.8464-10.3424-48.128-12.9024-30.9248-4.9152-60.416-0.8192-81.3056 25.8048-12.6976 16.0768-25.3952 32.8704-33.8944 51.3024-13.312 28.5696-33.5872 47.8208-62.5664 58.7776-3.6864 1.4336-7.4752 2.6624-11.264 3.7888-3.9936 1.2288-8.192 1.9456-12.3904 1.9456h-5.12c-5.0176 0-13.2096-0.9216-18.0224-2.1504-37.4784-8.8064-62.976-30.6176-77.6192-66.7648-5.8368-14.4384-15.5648-27.648-25.2928-39.936-18.5344-23.3472-42.496-37.888-73.4208-33.5872-22.016 3.072-44.1344 7.5776-65.1264 14.848-52.8384 18.2272-111.104-9.5232-127.2832-62.5664-7.7824-25.4976-3.6864-49.5616 4.8128-74.752 25.7024-77.0048 9.6256-108.032-44.9536-143.9744-11.9808-7.8848-26.7264-11.776-38.7072-19.6608-31.5392-20.8896-49.3568-50.5856-46.6944-88.9856 2.56-38.5024 22.4256-66.56 57.2416-84.1728 15.6672-7.8848 31.4368-15.9744 45.4656-26.3168 24.7808-18.3296 40.5504-41.7792 38.8096-75.0592-1.2288-24.1664-6.8608-46.6944-15.2576-69.12-17.92-47.8208 7.2704-103.2192 54.5792-122.2656 27.648-11.1616 54.0672-8.0896 82.1248 1.4336 77.1072 26.4192 108.3392 10.0352 144.1792-44.032 8.192-12.3904 12.1856-27.5456 20.3776-39.8336 21.4016-31.8464 51.6096-49.664 90.5216-46.2848 37.6832 3.2768 65.4336 23.2448 82.6368 57.6512 7.5776 15.2576 15.6672 30.5152 25.6 44.3392 18.7392 26.0096 43.3152 43.4176 77.2096 39.3216 20.2752-2.4576 40.96-6.2464 60.2112-12.9024 41.0624-14.336 78.6432-9.3184 108.8512 21.1968 30.0032 30.3104 36.2496 67.8912 20.7872 108.7488-5.5296 14.6432-9.9328 30.208-11.776 45.7728-3.072 25.7024-2.4576 51.2 17.1008 72.0896 17.408 18.5344 36.864 33.9968 60.8256 43.3152 29.0816 11.264 47.2064 32.9728 57.9584 61.3376 2.8672 7.68 4.3008 15.9744 6.3488 24.064m-513.024-181.76c-103.3216 0.1024-187.4944 84.2752-187.8016 187.4944-0.3072 103.8336 84.5824 188.3136 188.5184 187.8016 103.936-0.512 187.1872-84.2752 186.9824-187.8016-0.3072-103.424-84.5824-187.5968-187.6992-187.4944z m0 0" p-id="1711"></path><path d="M512 511.7952m-88.9856 0a88.9856 88.9856 0 1 0 177.9712 0 88.9856 88.9856 0 1 0-177.9712 0Z" p-id="1712"></path></svg>
