<?xml version="1.0" standalone="no"?><!DOCTYPE svg PUBLIC "-//W3C//DTD SVG 1.1//EN" "http://www.w3.org/Graphics/SVG/1.1/DTD/svg11.dtd"><svg t="1617784582821" class="icon" viewBox="0 0 1024 1024" version="1.1" xmlns="http://www.w3.org/2000/svg" p-id="2870" xmlns:xlink="http://www.w3.org/1999/xlink" width="128" height="128"><defs><style type="text/css"></style></defs><path d="M1011.405005 367.5136L530.022605 13.824a30.57664 30.57664 0 0 0-36.1472 0L12.493005 367.5136C-11.263795 385.024 1.126605 422.7072 30.617805 422.7072h52.9408v487.936c0 58.368 47.2064 105.5744 105.5744 105.5744h645.7344c58.368 0 105.5744-47.2064 105.5744-105.5744V422.6048h52.9408c29.4912 0 41.8816-37.6832 18.0224-55.0912zM512.921805 867.84c-104.1408 0-188.5184-84.3776-188.5184-188.5184s84.3776-188.5184 188.5184-188.5184S701.440205 575.2832 701.440205 679.424s-84.3776 188.416-188.5184 188.416z" p-id="2871"></path><path d="M515.789005 679.424m-123.4944 0a123.4944 123.4944 0 1 0 246.9888 0 123.4944 123.4944 0 1 0-246.9888 0Z" p-id="2872"></path></svg>
