<?xml version="1.0" standalone="no"?><!DOCTYPE svg PUBLIC "-//W3C//DTD SVG 1.1//EN" "http://www.w3.org/Graphics/SVG/1.1/DTD/svg11.dtd"><svg t="1609918805501" class="icon" viewBox="0 0 1024 1024" version="1.1" xmlns="http://www.w3.org/2000/svg" p-id="1998" xmlns:xlink="http://www.w3.org/1999/xlink" width="128" height="128"><defs><style type="text/css"></style></defs><path d="M855.224062 497.341139c-46.74565-107.386776-95.077426-165.637458-112.38358-212.174354-18.393929-49.461505-0.255827-91.585905-0.255827-91.585905-38.372959-7.674796-66.897619 28.953426-88.430028 66.109674-13.32447 22.991644-30.728862 162.352645-57.975413 196.567911-4.640694 5.826705-13.856589 4.40124-16.443507-2.583848-93.073792-251.330142-43.176358-385.844765-43.176358-385.844765C390.152884 123.085316 353.72216 266.021749 346.762655 288.149722c-13.44522 42.748616-7.759731 205.29569-7.759731 205.29569-0.578168 11.114129-15.684214 13.977339-20.289092 3.845585 0 0-38.581714-95.104031-43.070958-147.295718-3.675716-42.724057-3.986801-33.824363-3.986801-33.824363-66.316381 61.323671-139.941216 200.188368-139.941216 293.471938 0 187.339736 165.269068 339.208609 369.139292 339.208609s369.139292-151.868873 369.139292-339.208609C869.99344 569.679677 869.99344 531.271926 855.224062 497.341139z" p-id="1999"></path></svg>