<?xml version="1.0" standalone="no"?><!DOCTYPE svg PUBLIC "-//W3C//DTD SVG 1.1//EN" "http://www.w3.org/Graphics/SVG/1.1/DTD/svg11.dtd"><svg t="1617784550417" class="icon" viewBox="0 0 1024 1024" version="1.1" xmlns="http://www.w3.org/2000/svg" p-id="1582" xmlns:xlink="http://www.w3.org/1999/xlink" width="128" height="128"><defs><style type="text/css"></style></defs><path d="M512 0c282.7264 0 512 229.2736 512 512s-229.2736 512-512 512S0 794.7264 0 512 229.2736 0 512 0z m157.7984 555.2128H373.0432c-3.2768 0-6.656 0.1024-9.8304 0.2048-123.8016 6.2464-117.8624 191.7952 6.0416 191.7952h296.96c110.2848 0 134.5536-156.9792 28.7744-188.2112-8.3968-2.4576-16.7936-3.7888-25.1904-3.7888zM512 223.9488c-70.656 0-128 57.344-128 128s57.344 128 128 128 128-57.344 128-128-57.344-128-128-128z m0 0" p-id="1583"></path></svg>
