<?xml version="1.0" standalone="no"?><!DOCTYPE svg PUBLIC "-//W3C//DTD SVG 1.1//EN" "http://www.w3.org/Graphics/SVG/1.1/DTD/svg11.dtd"><svg t="1617784564934" class="icon" viewBox="0 0 1024 1024" version="1.1" xmlns="http://www.w3.org/2000/svg" p-id="2230" xmlns:xlink="http://www.w3.org/1999/xlink" width="128" height="128"><defs><style type="text/css"></style></defs><path d="M873.562263 149.926044C776.852289 53.21607 648.41735 0 511.692984 0S246.53368 53.21607 149.823706 149.823706C53.21607 246.53368 0 374.968619 0 511.692984c0 70.408955 14.020388 138.56646 41.754148 202.630422a509.175455 509.175455 0 0 0 113.493503 164.458125c0.614032 0.614032 1.023386 1.023386 1.023386 3.377174 0.102339 21.18409-31.417949 62.119528-52.704377 82.996602a34.078753 34.078753 0 0 0-7.675395 37.353588c5.219268 12.792325 17.704577 21.491105 31.520288 21.491105H511.692984c136.724365 0 265.159304-53.523086 361.869279-150.130722C970.169898 777.159304 1023.385968 648.41735 1023.385968 511.692984s-53.21607-265.159304-149.823705-361.76694zM276.211873 570.435339A79.210074 79.210074 0 0 1 197.001799 491.225265a79.210074 79.210074 0 1 1 158.420148 0c0.102339 43.698581-35.409155 79.210074-79.210074 79.210074z m241.212073 0A79.210074 79.210074 0 0 1 438.213872 491.225265a79.210074 79.210074 0 0 1 79.210074-79.210074A79.210074 79.210074 0 0 1 596.63402 491.225265c0.102339 43.698581-35.409155 79.210074-79.210074 79.210074z m241.314411 0A79.210074 79.210074 0 0 1 679.528283 491.225265a79.210074 79.210074 0 0 1 79.210074-79.210074 79.210074 79.210074 0 1 1 0 158.420148z" p-id="2231"></path></svg>
