<?xml version="1.0" standalone="no"?><!DOCTYPE svg PUBLIC "-//W3C//DTD SVG 1.1//EN" "http://www.w3.org/Graphics/SVG/1.1/DTD/svg11.dtd"><svg t="1609917955201" class="icon" viewBox="0 0 1024 1024" version="1.1" xmlns="http://www.w3.org/2000/svg" p-id="1798" xmlns:xlink="http://www.w3.org/1999/xlink" width="128" height="128"><defs><style type="text/css"></style></defs><path d="M916.96 128.88H107.5c-59.18 0-107.5 45.06-107.5 100.24v567.52c0 55.19 48.32 100.24 107.5 100.24h809.46c59.18 0 107.5-45.06 107.5-100.24V229.12c0-55.18-48.32-100.24-107.5-100.24zM961.64 766c0 45.56-13.18 63-65 63H128.64c-51.82 0-64-20.44-64-66V267c0-45.56 12.18-72 64-72h768c51.82 0 65 17.44 65 63v508zM410.61 527.44c29.73-25.27 48.96-62.42 48.96-104.37 0-75.88-61.74-137.62-137.62-137.62S184.34 347.19 184.34 423.07c0 41.95 19.26 79.1 48.99 104.37-61.7 32.15-104.04 96.62-104.04 170.87 0 15.2 12.33 27.53 27.53 27.53s27.52-12.33 27.52-27.53c0-75.88 61.74-137.62 137.62-137.62s137.62 61.74 137.62 137.62c0 15.2 12.33 27.53 27.53 27.53 15.2 0 27.53-12.33 27.53-27.53-0.01-74.25-42.32-138.71-104.03-170.87z m-88.66-21.8c-45.58-0.05-82.51-36.99-82.57-82.57 0-45.6 36.97-82.57 82.57-82.57 45.6 0 82.57 36.96 82.57 82.57 0.01 45.61-36.96 82.57-82.57 82.57zM896.64 369.2c0 15.7-11.21 28.44-25.03 28.44H571.25c-13.82 0-25.03-12.73-25.03-28.44 0-15.7 11.2-28.43 25.03-28.43h300.35c13.83-0.01 25.04 12.72 25.04 28.43z m-25.03 142.17c0 15.7-11.2 28.43-25.03 28.43H571.25c-13.82 0-25.03-12.73-25.03-28.43s11.2-28.44 25.03-28.44h275.32c13.83 0 25.04 12.74 25.04 28.44z m-75.09 142.16c0 15.7-11.21 28.44-25.03 28.44H571.25c-13.82 0-25.03-12.73-25.03-28.44 0-15.7 11.21-28.43 25.03-28.43h200.23c13.83 0 25.04 12.73 25.04 28.43z" p-id="1799"></path></svg>