<?xml version="1.0" standalone="no"?><!DOCTYPE svg PUBLIC "-//W3C//DTD SVG 1.1//EN" "http://www.w3.org/Graphics/SVG/1.1/DTD/svg11.dtd"><svg t="1617784558172" class="icon" viewBox="0 0 1024 1024" version="1.1" xmlns="http://www.w3.org/2000/svg" p-id="1839" xmlns:xlink="http://www.w3.org/1999/xlink" width="128" height="128"><defs><style type="text/css"></style></defs><path d="M438.447952 511.488511c0 40.407592 32.735265 73.040559 73.040559 73.04056 40.407592 0 73.040559-32.735265 73.04056-73.04056 0-40.305295-32.735265-73.040559-73.04056-73.040559-40.305295 0-73.040559 32.735265-73.040559 73.040559z m0 0" p-id="1840"></path><path d="M828.202198 535.835365c-13.298701 0-24.03996-10.843556-23.937663-24.142258v-0.204596c0-8.286114-0.204595-16.367632-0.920679-24.346853-12.48032-149.763836-138.511089-267.917682-291.753047-267.917682s-279.272727 118.153846-291.753047 267.917682c-0.716084 8.081518-1.022977 16.060739-1.022977 24.346853v0.204596c0 13.298701-10.638961 24.142258-23.937662 24.142258H26.085914c-14.321678 0-25.574426 12.378022-24.142258 26.6997C27.62038 821.245954 246.025974 1022.977023 511.590809 1022.977023s483.97043-201.731069 509.544855-460.441958c1.432168-14.321678-9.718282-26.6997-24.142257-26.6997h-168.791209zM511.590809 657.671928c-80.712887 0-146.183417-65.470529-146.183416-146.183417 0-80.712887 65.470529-146.183417 146.183416-146.183416 80.712887 0 146.183417 65.470529 146.183417 146.183416-0.102298 80.712887-65.470529 146.183417-146.183417 146.183417z m0 0" p-id="1841"></path><path d="M154.571828 487.141658H26.085914c-14.321678 0-25.574426-12.378022-24.142258-26.6997C27.62038 201.833367 246.025974 0 511.590809 0s483.97043 201.731069 509.544855 460.441958c1.432168 14.321678-9.718282 26.6997-24.142257 26.6997H873.929271c-12.173427 0-22.403197-9.002198-24.03996-21.073326-22.198601-166.745255-165.313087-295.64036-338.4008-295.64036-177.077323 0-320.498701 118.86993-337.377822 291.139261 0 0.102298-3.068931 23.528472-19.538861 25.574425z m16.46993 0" p-id="1842"></path></svg>
