<?xml version="1.0" standalone="no"?><!DOCTYPE svg PUBLIC "-//W3C//DTD SVG 1.1//EN" "http://www.w3.org/Graphics/SVG/1.1/DTD/svg11.dtd"><svg t="1609918884587" class="icon" viewBox="0 0 1024 1024" version="1.1" xmlns="http://www.w3.org/2000/svg" p-id="7293" xmlns:xlink="http://www.w3.org/1999/xlink" width="128" height="128"><defs><style type="text/css"></style></defs><path d="M537.045333 981.333333h-51.626666c-56.32 0-103.253333-46.933333-103.253334-103.253333v-54.741333l-39.125333 39.082666c-40.661333 40.704-106.368 40.704-145.493333 0l-35.968-37.546666c-40.704-40.661333-40.704-106.368 0-145.493334l39.082666-39.082666H145.92c-56.32 0-103.253333-46.933333-103.253333-103.253334v-51.626666c0-56.32 46.933333-103.253333 103.253333-103.253334h54.741333l-39.082666-39.125333c-40.704-40.661333-40.704-106.368 0-145.493333l35.968-35.968c40.661333-40.704 106.368-40.704 145.493333 0l39.125333 39.082666V145.92c0-56.32 46.933333-103.253333 103.253334-103.253333h51.626666c56.32 0 103.253333 46.933333 103.253334 103.253333v54.741333l39.082666-39.082666c40.704-40.704 106.410667-40.704 145.493334 0l36.010666 35.968c40.661333 40.661333 40.661333 106.368 0 145.493333l-39.125333 39.125333h54.741333c56.32 0 103.253333 46.933333 103.253334 103.253334v51.626666c0 56.32-46.933333 103.253333-103.253334 103.253334H821.76l39.125333 39.082666c40.661333 40.704 40.661333 106.410667 0 145.493334l-36.010666 36.010666c-40.661333 40.661333-106.368 40.661333-145.493334 0l-39.082666-39.125333v54.741333c0 57.898667-45.397333 104.832-103.253334 104.832z m-148.650666-259.712c10.965333 0 23.466667 1.578667 34.432 6.272 32.853333 14.08 54.741333 45.354667 54.741333 81.365334v67.242666c0 4.693333 4.693333 9.386667 9.386667 9.386667h51.626666c4.693333 0 9.386667-4.693333 9.386667-9.386667v-67.242666c0-36.010667 21.930667-68.864 54.784-81.365334a89.045333 89.045333 0 0 1 96.981333 18.773334l46.933334 46.933333c4.693333 4.693333 9.386667 4.693333 12.501333 0l36.010667-35.968a11.861333 11.861333 0 0 0 3.114666-6.272c0-1.578667 0-4.693333-3.114666-6.272l-46.933334-46.933333a89.045333 89.045333 0 0 1-18.773333-96.981334c14.08-32.853333 45.354667-54.741333 81.322667-54.741333h67.285333c4.693333 0 9.386667-4.693333 9.386667-9.386667v-51.626666c0-4.693333-4.693333-9.386667-9.386667-9.386667h-67.285333c-35.968 0-68.821333-21.930667-81.322667-54.784-12.544-32.853333-6.272-71.936 18.773333-96.981333l46.933334-46.933334a11.861333 11.861333 0 0 0 3.114666-6.272c0-1.536 0-4.693333-3.114666-6.229333l-36.010667-36.010667c-4.693333-4.693333-9.386667-4.693333-12.501333 0l-46.933334 46.933334a89.045333 89.045333 0 0 1-96.981333 18.773333c-32.853333-14.08-54.784-45.354667-54.784-81.322667V145.92c0-4.693333-4.693333-9.386667-9.386667-9.386667h-51.626666c-4.693333 0-9.386667 4.693333-9.386667 9.386667v67.285333c0 35.968-21.888 68.821333-54.741333 81.322667-32.853333 14.08-71.978667 6.272-96.981334-18.773333l-46.933333-46.933334c-4.693333-4.693333-9.386667-4.693333-12.544 0l-35.968 36.010667a11.861333 11.861333 0 0 0-3.114667 6.229333c0 1.578667 0 4.693333 3.114667 6.272l46.933333 46.933334c25.045333 25.045333 32.853333 64.128 18.773334 96.981333-14.08 32.853333-45.354667 54.784-81.365334 54.784H145.92c-4.693333 1.536-9.386667 4.693333-9.386667 9.386667v51.626666c0 4.693333 4.693333 9.386667 9.386667 9.386667h67.285333c35.968 0 68.821333 21.888 81.322667 54.741333 12.544 32.853333 6.272 71.978667-18.773333 96.981334l-46.933334 46.933333a11.861333 11.861333 0 0 0-3.114666 6.272c0 1.578667 0 4.693333 3.114666 6.272l36.010667 35.968c4.693333 4.693333 9.386667 4.693333 12.501333 0l46.933334-46.933333c18.773333-15.658667 40.661333-25.045333 64.128-25.045334z" p-id="7294"></path><path d="M512 693.461333A181.589333 181.589333 0 0 1 330.538667 512c0-100.138667 81.322667-183.04 181.461333-183.04 100.138667 0 181.461333 82.901333 181.461333 183.04A181.589333 181.589333 0 0 1 512 693.461333zM512 418.133333c-51.626667 0-93.866667 42.24-93.866667 93.866667 0 51.626667 42.24 93.866667 93.866667 93.866667 51.626667 0 93.866667-42.24 93.866667-93.866667 0-51.626667-42.24-93.866667-93.866667-93.866667z" p-id="7295"></path></svg>