<?xml version="1.0" standalone="no"?><!DOCTYPE svg PUBLIC "-//W3C//DTD SVG 1.1//EN" "http://www.w3.org/Graphics/SVG/1.1/DTD/svg11.dtd"><svg t="1617784571243" class="icon" viewBox="0 0 1024 1024" version="1.1" xmlns="http://www.w3.org/2000/svg" p-id="2486" xmlns:xlink="http://www.w3.org/1999/xlink" width="128" height="128"><defs><style type="text/css"></style></defs><path d="M512 0C229.376 0 0 229.376 0 512s229.376 512 512 512 512-229.376 512-512S794.624 0 512 0zM219.4432 648.9088c-3.7888-81.92 48.8448-153.9072 122.88-171.7248-43.008-21.504-62.464-74.0352-43.008-120.832 17.408-40.96 58.368-62.464 99.328-50.8928-37.1712 54.5792-35.1232 128.7168 3.7888 183.296-58.368 27.3408-114.9952 83.968-126.6688 194.8672-44.3392 0.4096-56.32-5.7344-56.32-34.7136z m294.6048 101.376c-159.744 0-206.848 0-206.848-38.912 0-144.384 83.968-196.9152 155.9552-212.6848-56.6272-31.0272-76.0832-103.424-48.8448-161.792 27.3408-58.368 95.5392-79.872 148.1728-48.8448 52.5312 31.0272 74.0352 103.424 44.7488 159.744-9.9328 23.552-25.2928 38.912-43.008 50.8928 71.9872 15.6672 155.9552 66.2528 155.9552 212.6848 0.7168 38.912-48.128 38.912-206.1312 38.912z m233.7792-66.2528c-11.5712-112.9472-68.3008-167.6288-126.6688-194.8672 38.912-52.5312 40.96-128.7168 3.7888-185.344 44.7488-13.6192 91.4432 17.408 103.424 66.2528 9.9328 43.008-9.9328 89.8048-48.8448 107.2128 74.0352 19.456 124.928 89.8048 124.928 171.7248 0.1024 28.8768-11.5712 35.0208-56.6272 35.0208z m0 0" p-id="2487"></path></svg>
