<?xml version="1.0" standalone="no"?><!DOCTYPE svg PUBLIC "-//W3C//DTD SVG 1.1//EN" "http://www.w3.org/Graphics/SVG/1.1/DTD/svg11.dtd"><svg t="1617784561877" class="icon" viewBox="0 0 1024 1024" version="1.1" xmlns="http://www.w3.org/2000/svg" p-id="2101" xmlns:xlink="http://www.w3.org/1999/xlink" width="128" height="128"><defs><style type="text/css"></style></defs><path d="M512 411.7504m-70.5536 0a70.5536 70.5536 0 1 0 141.1072 0 70.5536 70.5536 0 1 0-141.1072 0Z" p-id="2102"></path><path d="M512 0C229.2736 0 0 229.2736 0 512s229.2736 512 512 512 512-229.2736 512-512S794.7264 0 512 0z m-36.1472 774.9632c0 7.168-7.168 14.4384-14.4384 14.4384-7.168 0-14.4384-7.168-14.4384-14.4384v-33.1776c0-7.168 7.168-14.4384 14.4384-14.4384 7.168 0 14.4384 7.168 14.4384 14.4384v33.1776z m52.9408 28.8768c0 7.168-7.168 14.4384-14.4384 14.4384-7.168 0-14.4384-7.168-14.4384-14.4384v-59.5968c0-7.168 7.168-14.4384 14.4384-14.4384 7.168 0 14.4384 7.168 14.4384 14.4384v59.5968z m48.2304-45.6704c0 7.168-7.168 14.4384-14.4384 14.4384-7.168 0-14.4384-7.168-14.4384-14.4384v-13.9264c0-7.168 7.168-14.4384 14.4384-14.4384 7.168 0 14.4384 7.168 14.4384 14.4384v13.9264z m161.28-153.6c-4.8128 62.5664-67.3792 105.984-91.4432 103.5264-24.064-2.3552-16.7936-19.2512-16.7936-19.2512l-3.8912-18.0224a6.7584 6.7584 0 0 0-12.1856-2.4576c-10.8544 15.6672-28.7744 39.7312-36.864 39.7312h-130.048c-6.5536 0-25.4976-24.7808-36.864-40.448a6.7584 6.7584 0 0 0-12.0832 2.56l-3.9936 18.5344s7.168 16.7936-16.7936 19.2512c-24.064 2.4576-86.6304-40.96-91.4432-103.5264-4.8128-62.5664 28.9792-98.7136 60.2112-120.4224-1.9456-157.3888 103.7312-244.0192 147.7632-273.1008 10.9568-7.2704 25.2928-7.168 36.2496 0.1024 43.9296 29.4912 150.2208 115.9168 148.2752 272.896 31.0272 22.016 64.7168 58.0608 59.904 120.6272z" p-id="2103"></path></svg>
